<svg xmlns="http://www.w3.org/2000/svg" width="43" height="21" viewBox="0 0 43 21"><path fill="currentColor" d="M34.874 15.555l.034-.133c.125-.515.134-.815.073-1.028a1.588 1.588 0 00-.06-.148c-.068-.127-.166-.225-.277-.343-.264-.278-1.269-.393-2.941-.184a.74.74 0 01-.832-.732c0-2.921 2.085-5.302 4.892-5.302 2.86 0 5.18 2.313 5.18 5.165a.739.739 0 01-.955.706c-1.229-.34-1.593-.29-1.6-.234-.023.156.06.88.195 1.3.104.323.198.636.281.939a.75.75 0 01.091-.006h1.293c.972-.699 1.403-2.377 1.234-3.57-.15-1.062-.495-2.176-1.161-3.176-.98-1.47-2.448-2.312-4.589-2.312-3.184 0-5.035 2.022-5.647 6.333.047.434-.373.886-.716.874l-11.635.003a.739.739 0 110-1.475l10.199-.003a14.832 14.832 0 00-11.635-5.627h-.371L4.028 12.231l10.525-.002a.739.739 0 110 1.475l-13.071.003v1.848h5.217a.739.739 0 110 1.476H.742a.739.739 0 01-.74-.738V13.04a.715.715 0 01.422-.737l14.733-6.97c-.156-1.169.131-2.278.853-3.29 2.642-3.7 13.674-2.347 23.428 3.839a.737.737 0 01.213.205 6.584 6.584 0 011.902 1.905c.81 1.217 1.215 2.525 1.394 3.787.253 1.782-.391 4.157-2.11 5.152a.741.741 0 01-.372.1H39.19c.077.486.113.939.101 1.356-.043 1.58-.821 2.613-2.365 2.613-1.956 0-2.633-1.445-2.418-3.537.015-.142.033-.286.055-.432H15.69a.739.739 0 110-1.476h19.183zm1.48.194a25.31 25.31 0 01-.127.495c-.12.503-.204.952-.247 1.37-.138 1.343.128 1.91.946 1.91.624 0 .862-.316.886-1.177.023-.835-.214-1.958-.638-3.274-.2-.62-.307-1.565-.252-1.957.156-1.108 1.019-1.43 2.417-1.213a3.7 3.7 0 00-3.576-2.742c-1.685 0-3.016 1.265-3.338 3.003 1.613-.114 2.592.111 3.303.686.712.575 1.11 1.399.635 2.872l-.01.027zM34.966 5.055C26.907 1.051 18.976.432 17.216 2.9c-.503.704-.698 1.435-.593 2.231a16.314 16.314 0 0112.287 5.956c.886-3.687 2.923-5.748 6.056-6.03zM9.369 17.031a.739.739 0 110-1.476h3.205a.739.739 0 110 1.476H9.37z"></path></svg>
