<svg width="20" height="31" viewBox="0 0 20 31" fill="none" xmlns="http://www.w3.org/2000/svg">
<mask id="mask0" style="mask-type:alpha" maskUnits="userSpaceOnUse" x="0" y="5" width="20" height="20">
<path d="M19.2836 11.7755L13.3328 10.9107L10.6726 5.51771C10.6 5.37005 10.4804 5.25052 10.3328 5.17787C9.96248 4.99505 9.51248 5.1474 9.32732 5.51771L6.66717 10.9107L0.716389 11.7755C0.552327 11.799 0.402327 11.8763 0.287483 11.9935C0.148643 12.1362 0.0721362 12.3282 0.074773 12.5273C0.0774098 12.7263 0.158975 12.9162 0.301545 13.0552L4.60701 17.2529L3.58983 23.1802C3.56597 23.3181 3.58123 23.4599 3.63387 23.5896C3.68651 23.7192 3.77442 23.8315 3.88764 23.9137C4.00086 23.996 4.13486 24.0448 4.27443 24.0548C4.41401 24.0647 4.55358 24.0354 4.67733 23.9701L9.99998 21.1716L15.3226 23.9701C15.4679 24.0474 15.6367 24.0732 15.7984 24.0451C16.2062 23.9747 16.4804 23.588 16.4101 23.1802L15.3929 17.2529L19.6984 13.0552C19.8156 12.9404 19.8929 12.7904 19.9164 12.6263C19.9797 12.2161 19.6937 11.8365 19.2836 11.7755V11.7755Z" fill="#C4C4C4"/>
</mask>
<g mask="url(#mask0)">
<path d="M-2 0H10V31H-2V0Z" fill="#FADB14"/>
<path d="M10 0H22V31H10V0Z" fill="black" fill-opacity="0.06"/>
</g>
</svg>
