<svg width="20" height="31" viewBox="0 0 20 31" fill="none" xmlns="http://www.w3.org/2000/svg">
<path d="M19.2838 11.7756L13.333 10.9107L10.6729 5.51774C10.6002 5.37009 10.4807 5.25055 10.333 5.1779C9.96273 4.99509 9.51272 5.14743 9.32757 5.51774L6.66741 10.9107L0.716633 11.7756C0.552571 11.799 0.402571 11.8763 0.287727 11.9935C0.148887 12.1362 0.0723803 12.3282 0.0750171 12.5273C0.077654 12.7264 0.159219 12.9163 0.301789 13.0552L4.60726 17.2529L3.59007 23.1802C3.56622 23.3181 3.58147 23.4599 3.63411 23.5896C3.68675 23.7192 3.77467 23.8315 3.88789 23.9138C4.00111 23.996 4.1351 24.0449 4.27468 24.0548C4.41426 24.0648 4.55383 24.0354 4.67757 23.9701L10.0002 21.1716L15.3229 23.9701C15.4682 24.0474 15.6369 24.0732 15.7987 24.0451C16.2065 23.9748 16.4807 23.5881 16.4104 23.1802L15.3932 17.2529L19.6987 13.0552C19.8158 12.9404 19.8932 12.7904 19.9166 12.6263C19.9799 12.2162 19.694 11.8365 19.2838 11.7756V11.7756Z" fill="black" fill-opacity="0.3"/>
</svg>
