<svg id="Icons" xmlns="http://www.w3.org/2000/svg" viewBox="0 0 48 48">
  <defs>
    <style>
      .cls-4{fill:#ff6242}.cls-4,.cls-7{stroke:#45413c;stroke-linecap:round;stroke-linejoin:round}.cls-7{fill:none}
    </style>
  </defs>
  <g id="_Group_" data-name="&lt;Group&gt;">
    <ellipse id="_Ellipse_" data-name="&lt;Ellipse&gt;" cx="24" cy="45.5" rx="11.5" ry="1.5" fill="#45413c" opacity=".15"/>
    <g id="_Group_2" data-name="&lt;Group&gt;">
      <path id="_Path_" data-name="&lt;Path&gt;" d="M40.63 11.39a37.49 37.49 0 00-33.26 0L9.63 16a18 18 0 011.87 8v4.44a2.07 2.07 0 001.66 2.08 2 2 0 002.34-2v-.68l7.61 15.36a1 1 0 001.78 0l2.61-5.27V40a1.5 1.5 0 003 0v-5.8a9.88 9.88 0 011-4.43c1.26-2.56 2.61-5.27 4-8v2.73a1.5 1.5 0 003 0V18a10.05 10.05 0 011-4.44z" fill="#ffe500"/>
      <path id="_Path_2" data-name="&lt;Path&gt;" d="M24 10.75a37.31 37.31 0 0115.35 3.3c.06-.15.12-.31.19-.45l1.09-2.21a37.49 37.49 0 00-33.26 0L8.68 14A37.32 37.32 0 0124 10.75z" fill="#ebcb00"/>
      <path id="_Path_3" data-name="&lt;Path&gt;" class="cls-4" d="M30.5 22.5a4.5 4.5 0 000 9h.19c1.11-2.23 2.29-4.62 3.49-7.06a4.47 4.47 0 00-3.68-1.94z"/>
      <path id="_Path_4" data-name="&lt;Path&gt;" class="cls-4" d="M23.5 33a4.49 4.49 0 00-4.5-4.5 4.44 4.44 0 00-2.71.93l3.91 7.89A4.49 4.49 0 0023.5 33z"/>
      <circle id="_Path_5" data-name="&lt;Path&gt;" class="cls-4" cx="30.5" cy="14.5" r="4.5"/>
      <path id="_Path_6" data-name="&lt;Path&gt;" d="M24 7.5a37.27 37.27 0 0116.63 3.89s2.47.31 2.87-1.89c1-5.5-15.33-7-19.5-7S3.5 4 4.5 9.5c.4 2.2 2.87 1.89 2.87 1.89A37.27 37.27 0 0124 7.5z" fill="#f0d5a8"/>
      <path id="_Path_7" data-name="&lt;Path&gt;" d="M4.54 9.66C8.18 6.07 20.4 5 24 5s15.82 1.07 19.46 4.66V9.5c1-5.5-15.33-7-19.5-7S3.5 4 4.5 9.5c.01.06.03.1.04.16z" fill="#f7e5c6"/>
      <path id="_Path_8" data-name="&lt;Path&gt;" class="cls-7" d="M24 7.5a37.27 37.27 0 0116.63 3.89s2.47.31 2.87-1.89c1-5.5-15.33-7-19.5-7S3.5 4 4.5 9.5c.4 2.2 2.87 1.89 2.87 1.89A37.27 37.27 0 0124 7.5z"/>
      <circle id="_Path_9" data-name="&lt;Path&gt;" class="cls-4" cx="17" cy="17" r="4.5"/>
      <path id="_Line_" data-name="&lt;Line&gt;" class="cls-7" d="M15.5 27.82V25.5"/>
      <path id="_Path_10" data-name="&lt;Path&gt;" class="cls-7" d="M40.63 11.39a37.49 37.49 0 00-33.26 0L9.63 16a18 18 0 011.87 8v4.44a2.07 2.07 0 001.66 2.08 2 2 0 002.34-2v-.68l7.61 15.36a1 1 0 001.78 0l2.61-5.27V40a1.5 1.5 0 003 0v-5.8a9.88 9.88 0 011-4.43c1.26-2.56 2.61-5.27 4-8v2.73a1.5 1.5 0 003 0V18a10.05 10.05 0 011-4.44z"/>
      <path id="_Line_2" data-name="&lt;Line&gt;" class="cls-7" d="M27.5 35.5v2.43"/>
      <path id="_Line_3" data-name="&lt;Line&gt;" class="cls-7" d="M35.5 20v1.76"/>
    </g>
  </g>
</svg>
