<svg xmlns="http://www.w3.org/2000/svg" width="32.754" height="32.754" viewBox="0 0 32.754 32.754">
  <path fill="currentColor" d="M21.072 26.604c-.316 0-.625-.02-.934-.047v2.104H4.189V3.508h15.949v2.194c.31-.027.617-.047.935-.047.203 0 .404.02.604.029V2.211A2.216 2.216 0 0019.465 0H4.863A2.218 2.218 0 002.65 2.211v28.331a2.22 2.22 0 002.213 2.212h14.602a2.219 2.219 0 002.213-2.212v-3.969c-.2.012-.403.031-.606.031zM9.829 1.595H14.5c.148 0 .268.12.268.271a.267.267 0 01-.268.267H9.829a.267.267 0 01-.268-.267c0-.151.119-.271.268-.271zm2.336 30.053a1.105 1.105 0 110-2.21 1.105 1.105 0 010 2.21zm15.39-19.374a.399.399 0 00.183.129l-.303.188-.525-.678.084-.118c.156.199.561.479.561.479zm-6.483-5.175c-4.988 0-9.033 4.045-9.033 9.031 0 4.989 4.045 9.031 9.033 9.031a9.03 9.03 0 009.031-9.031 9.03 9.03 0 00-9.031-9.031zm-5.297 2.795c.316.475-.438.551-.438.551a1.283 1.283 0 00-.234.096c.212-.231.439-.445.672-.647zm.815 7.902c-.283.354-.244.714-.244.714.363 1.272-.363 1.272-.363 1.272-.525.077-.322.712-.322.712 0 .357-.203.639-.203.639.203.277.043.598.043.598a.377.377 0 00-.061.199 8.084 8.084 0 01-2.397-7.261l.076-.13.324.199c.283-.119.441.316.441.316.242-.041.324.398.324.398.605-.239.725.871.725.871.324 0 .688.396.688.396.604 0 .725.397.725.397.525-.078.244.68.244.68zm.22-8.287c-.052.439-.82.385-1.006.364a8.002 8.002 0 011.029-.739l-.023.375zm11.147 4.034s-.158.437-.643.676c0 0-.686-1.669-1.533-2.026 0 0 .887 1.55 1.613 2.266 0 0 .201.121.523-.038 0 0 .039 1.312-.728 2.185 0 0-.199.479-.119.992 0 0 .119.875-.524 1.312 0 0-.283.197-.283.674 0 0 0 .396-.443.396 0 0-.484 1.025-1.855.828 0 0 0-.746-.399-1.621 0 0-.365-.479.196-1.033 0 0 .527-.238-.278-1.151 0 0-.522-.438-.242-.914 0 0 .08-.397-.12-.517 0 0-.562.117-.685-.277 0 0-1.05.396-1.533.198 0 0-.604.396-1.09-.519 0 0-.806-.478-.521-.914 0 0 .08-.436.08-.873 0 0 .08-.716.887-1.072 0 0 .242-.717.604-.717 0 0 .768-.041 1.172-.196 0 0 .523-.16.844-.08 0 0 .203.317.082.516 0 0 .562-.196.928.237 0 0 .361-.037.279-.316 0 0 .931.559 1.414.239 0 0 .119-.795-.322-.756 0 0-.686.04-1.01-.437 0 0-.361-.16-.283.08 0 0 .043.237.324.316 0 0-.08.238-.361.119 0 0-.241-.08-.321-.598 0 0-.646-.117-.81-.396 0 0-.399.119.523.559 0 0 .365.275-.121.476 0 0-.322-.158.041-.237 0 0-.08-.16-.443-.279 0 0-.239-.236-.28-.396 0 0-.481.318-.687.119 0 0-.082.396-.322.396 0 0-.043.596-.848.358h-.244s-.201-.556.082-.716c0 0 .523.119.644 0 .123-.117.202-.317-.119-.396 0 0-.481-.123-.283-.36 0 0 .242-.276.484.082 0 0 .403-.28.926-.317 0 0 .931-.4.687-.679 0 0-.603.358-.886.162 0 0-.795-.263-.147-.895a8.108 8.108 0 016.418 4.355c-.121.051-.287.097-.439.059.12.125.638.705.171 1.126z"/>
</svg>
